# xmcd CD database file
#
# Track frame offsets:
#	150
#	23764
#	39737
#	68166
#	86935
#	110582
#	132458
#	151423
#	173089
#	194077
#
# Disc length: 2796 seconds
#
# Revision: 0
# Processed by: cddbd v1.5.2PL0 Copyright (c) Steve Scherf et al.
# Submitted via: CDex 1.51
#
DISCID=8e0aea0a
DTITLE=Various Artist - Various Artists-Smooth Jazz Christmas-Disc2
DYEAR=2004
DGENRE=Jazz
TTITLE0=Joy To The World Reprise
TTITLE1=Silent Night Reprise
TTITLE2=Do You Hear What I Hear
TTITLE3=As A Child
TTITLE4=O Holy Night
TTITLE5=O Come All Ye Faithful
TTITLE6=God Rest Ye Merry Gentlemen Reprise
TTITLE7=Little Drummer Boy Reprise
TTITLE8=It Came Upon A Midnight Clear
TTITLE9=We Wiish You A Merry Christmas Reprise
EXTD=YEAR: 2004
EXTT0=
EXTT1=
EXTT2=
EXTT3=
EXTT4=
EXTT5=
EXTT6=
EXTT7=
EXTT8=
EXTT9=
PLAYORDER=
